<?xml version="1.0" encoding="UTF-8" standalone="no" ?>
<!DOCTYPE svg PUBLIC "-//W3C//DTD SVG 1.1//EN" "http://www.w3.org/Graphics/SVG/1.1/DTD/svg11.dtd">
<svg xmlns="http://www.w3.org/2000/svg" xmlns:xlink="http://www.w3.org/1999/xlink" version="1.1" width="325.5963216" height="325.5963216" viewBox="461.4218392 60.171839199999994 325.5963216 325.5963216" xml:space="preserve">
<desc>Created with Fabric.js 4.6.0</desc>
<defs>
</defs>
<g transform="matrix(3.74 0 0 3.74 624.22 222.97)" id="pS175basZsN0yVAVJU4IG"  >
<path style="stroke: rgb(17,165,206); stroke-width: 0; stroke-dasharray: none; stroke-linecap: butt; stroke-dashoffset: 0; stroke-linejoin: miter; stroke-miterlimit: 4; fill: rgb(255,222,80); fill-rule: nonzero; opacity: 1;" vector-effect="non-scaling-stroke"  transform=" translate(0, 0)" d="M 0 -43.52892 C 24.02796 -43.52892 43.52892 -24.02797 43.52892 0 C 43.52892 24.02796 24.02797 43.52892 0 43.52892 C -24.02796 43.52892 -43.52892 24.02797 -43.52892 0 C -43.52892 -24.02796 -24.02797 -43.52892 0 -43.52892 z" stroke-linecap="round" />
</g>
<g transform="matrix(0.47 0 0 0.47 624.22 210.81)" id="2pgoE-Ovt-Sbne9EqDnN5"  >
<g style="" vector-effect="non-scaling-stroke"   >
		<g transform="matrix(1 0 0 1 0 1.25)" id="8j1dSDGfFT6c5KwG17Qxf"  >
<path style="stroke: none; stroke-width: 1; stroke-dasharray: none; stroke-linecap: butt; stroke-dashoffset: 0; stroke-linejoin: miter; stroke-miterlimit: 4; fill: rgb(255,193,0); fill-rule: nonzero; opacity: 1;" vector-effect="non-scaling-stroke"  transform=" translate(-248.3, -245.41)" d="M 165.19 59.92 C 165.19 59.92 89.42 98.52 51.63 158 C 13.840000000000003 217.48000000000002 16.83 294 62.75 350.8 C 108.67 407.6 196.44 400.14 269.93 436.12 C 343.42 472.1 424.5 464.69 459.25 388.46000000000004 C 494 312.2300000000001 441.6 283.74 432.6 195.52 C 423.6 107.30000000000001 344.07 -21.88 165.19 59.92 Z" stroke-linecap="round" />
</g>
		<g transform="matrix(1 0 0 1 0 1.25)" id="rcrFcy3AFmmHH_Cpx8avF"  >
<path style="stroke: none; stroke-width: 1; stroke-dasharray: none; stroke-linecap: butt; stroke-dashoffset: 0; stroke-linejoin: miter; stroke-miterlimit: 4; fill: rgb(255,255,255); fill-rule: nonzero; opacity: 0.7;" vector-effect="non-scaling-stroke"  transform=" translate(-248.3, -245.41)" d="M 165.19 59.92 C 165.19 59.92 89.42 98.52 51.63 158 C 13.840000000000003 217.48000000000002 16.83 294 62.75 350.8 C 108.67 407.6 196.44 400.14 269.93 436.12 C 343.42 472.1 424.5 464.69 459.25 388.46000000000004 C 494 312.2300000000001 441.6 283.74 432.6 195.52 C 423.6 107.30000000000001 344.07 -21.88 165.19 59.92 Z" stroke-linecap="round" />
</g>
		<g transform="matrix(1 0 0 1 151.14 65.78)" id="WQyvP8etz5OJWRaL7hfvv"  >
<path style="stroke: none; stroke-width: 1; stroke-dasharray: none; stroke-linecap: butt; stroke-dashoffset: 0; stroke-linejoin: miter; stroke-miterlimit: 4; fill: rgb(255,193,0); fill-rule: nonzero; opacity: 1;" vector-effect="non-scaling-stroke"  transform=" translate(-399.44, -309.94)" d="M 388.25 405.73 C 388.25 405.73 345.67 331 355.5 311.94 C 365.33 292.88 390.43 327.15 390.43 327.15 C 390.43 327.15 368.6 257.45 380.61 227 C 392.62 196.55 413.36 227 414.45000000000005 248.55 C 415.5400000000001 270.1 410.08000000000004 306.85 410.08000000000004 306.85 C 410.08000000000004 306.85 418.82000000000005 230.85000000000002 439.56000000000006 253.62000000000003 C 460.30000000000007 276.39000000000004 413.36000000000007 352.47 413.36000000000007 352.47 C 413.36000000000007 352.47 445.0200000000001 334.73 443.9200000000001 357.54 C 442.82000000000005 380.35 405.7200000000001 400.63 405.7200000000001 400.63" stroke-linecap="round" />
</g>
		<g transform="matrix(1 0 0 1 156.93 75.35)" id="Kc5nHQjT0OXVUk9Cz6NS8"  >
<path style="stroke: rgb(38,50,56); stroke-width: 1; stroke-dasharray: none; stroke-linecap: butt; stroke-dashoffset: 0; stroke-linejoin: miter; stroke-miterlimit: 10; fill: none; fill-rule: nonzero; opacity: 1;" vector-effect="non-scaling-stroke"  transform=" translate(-405.22, -319.51)" d="M 388.61 391.79 C 388.61 391.79 349.21000000000004 355.03000000000003 368.41 338.56 C 387.61 322.09 397.71000000000004 356.3 397.71000000000004 356.3 C 397.71000000000004 356.3 376.49 251.11 410.84000000000003 247.3 C 445.19000000000005 243.49 419.93 338.55 419.93 338.55 C 419.93 338.55 449.23 298 447.21 331 C 445.18999999999994 364 401.75 391.84000000000003 401.75 391.84000000000003" stroke-linecap="round" />
</g>
		<g transform="matrix(1 0 0 1 146.35 126.51)" id="A-YihMAieWQ8qjHiAsnVn"  >
<line style="stroke: rgb(38,50,56); stroke-width: 1; stroke-dasharray: none; stroke-linecap: butt; stroke-dashoffset: 0; stroke-linejoin: miter; stroke-miterlimit: 10; fill: none; fill-rule: nonzero; opacity: 1;" vector-effect="non-scaling-stroke"  x1="13.310000000000002" y1="14.425000000000011" x2="-13.310000000000002" y2="-14.425000000000011" />
</g>
		<g transform="matrix(1 0 0 1 157.73 100.99)" id="5-B_ZHqreFWQ_Yow0yT5Y"  >
<line style="stroke: rgb(38,50,56); stroke-width: 1; stroke-dasharray: none; stroke-linecap: butt; stroke-dashoffset: 0; stroke-linejoin: miter; stroke-miterlimit: 10; fill: none; fill-rule: nonzero; opacity: 1;" vector-effect="non-scaling-stroke"  x1="-3.6049999999999898" y1="42.16499999999999" x2="3.6049999999999898" y2="-42.16499999999999" />
</g>
		<g transform="matrix(1 0 0 1 164.94 121.23)" id="HFWBufpYNuU-xMoI0eXPR"  >
<line style="stroke: rgb(38,50,56); stroke-width: 1; stroke-dasharray: none; stroke-linecap: butt; stroke-dashoffset: 0; stroke-linejoin: miter; stroke-miterlimit: 10; fill: none; fill-rule: nonzero; opacity: 1;" vector-effect="non-scaling-stroke"  x1="-11.925000000000011" y1="15.810000000000002" x2="11.925000000000011" y2="-15.810000000000002" />
</g>
		<g transform="matrix(1 0 0 1 150.69 174.6)" id="fYZ0j2K1_4YFakpU301nR"  >
<path style="stroke: none; stroke-width: 1; stroke-dasharray: none; stroke-linecap: butt; stroke-dashoffset: 0; stroke-linejoin: miter; stroke-miterlimit: 4; fill: rgb(38,50,56); fill-rule: nonzero; opacity: 1;" vector-effect="non-scaling-stroke"  transform=" translate(-398.99, -418.76)" d="M 435.81 375.33 L 362.15999999999997 375.33 L 369.53 462.2 L 428.43999999999994 462.2 z" stroke-linecap="round" />
</g>
		<g transform="matrix(1 0 0 1 -124.6 46.53)" id="JTqk9rGdBIXMMNmpIkRAK"  >
<path style="stroke: rgb(38,50,56); stroke-width: 1; stroke-dasharray: none; stroke-linecap: round; stroke-dashoffset: 0; stroke-linejoin: round; stroke-miterlimit: 4; fill: rgb(255,193,0); fill-rule: nonzero; opacity: 1;" vector-effect="non-scaling-stroke"  transform=" translate(-123.7, -290.7)" d="M 154.65 274.59 C 145.074189923821 269.89161809001956 135.17579648842863 265.8814654490774 125.0299999999999 262.59 C 110.41 258.09 93.16 262.21 92.78 267.08 C 92.4 271.95 95 269.72 98.41 275 C 101.82 280.28 100.28 292.62 105.16 303.87 C 110.03999999999999 315.12 124.64999999999999 320.74 124.64999999999999 320.74 Z" stroke-linecap="round" />
</g>
		<g transform="matrix(1 0 0 1 -128.14 42.66)" id="UIGL9z8RIUO-DQbH5UPFU"  >
<path style="stroke: none; stroke-width: 1; stroke-dasharray: none; stroke-linecap: butt; stroke-dashoffset: 0; stroke-linejoin: miter; stroke-miterlimit: 4; fill: rgb(0,0,0); fill-rule: nonzero; opacity: 0.3;" vector-effect="non-scaling-stroke"  transform=" translate(-120.16, -286.82)" d="M 144.9 285.47 C 144.9 285.47 122.4 271.22 109.28 266.34000000000003 C 96.16 261.46000000000004 95.41 268.59000000000003 95.41 268.59000000000003 C 99.83796950391337 270.21529010034425 102.71624528547038 274.5064642318942 102.53999999999999 279.22 C 102.53999999999999 287.64000000000004 106.74999999999999 305.08000000000004 116.97999999999999 308.68 C 127.21 312.28 144.9 285.47 144.9 285.47 Z" stroke-linecap="round" />
</g>
		<g transform="matrix(1 0 0 1 52.81 45.79)" id="4HTPb6SBGV0zAwG7otCBM"  >
<path style="stroke: rgb(38,50,56); stroke-width: 1; stroke-dasharray: none; stroke-linecap: butt; stroke-dashoffset: 0; stroke-linejoin: miter; stroke-miterlimit: 4; fill: rgb(255,193,0); fill-rule: nonzero; opacity: 1;" vector-effect="non-scaling-stroke"  transform=" translate(-11.39, -12.23)" d="M 0 12.23 C 0 5.475560000000001 5.09948 0 11.39 0 C 17.68052 0 22.78 5.47556 22.78 12.23 C 22.78 18.98444 17.68052 24.46 11.39 24.46 C 5.099480000000001 24.46 0 18.98444 0 12.23 z" stroke-linecap="round" />
</g>
		<g transform="matrix(1 0 0 1 -78.71 197.35)" id="-ZpvdwdI5QJyDhLFbZxcq"  >
<path style="stroke: none; stroke-width: 1; stroke-dasharray: none; stroke-linecap: butt; stroke-dashoffset: 0; stroke-linejoin: miter; stroke-miterlimit: 4; fill: rgb(255,193,0); fill-rule: nonzero; opacity: 1;" vector-effect="non-scaling-stroke"  transform=" translate(-169.58, -441.51)" d="M 144.23 420.82 L 156.85 458.68 C 157.5519797447542 460.78389376010114 159.522086493964 462.20204831167956 161.73999999999998 462.2 L 181.40999999999997 462.2 C 183.46691804573416 462.2031404015392 185.32763887602627 460.9797066209454 186.13999999999996 459.09 L 194.93999999999997 438.66999999999996" stroke-linecap="round" />
</g>
		<g transform="matrix(1 0 0 1 -76.72 197.34)" id="CmuuzKKebH1t4ldViMxWR" clip-path="url(#CLIPPATH_20)"  >
<clipPath id="CLIPPATH_20" >
	<path transform="matrix(1 0 0 1 -1.99 0) translate(-169.58, -441.51)" id="freepik--clip-path--inject-7" d="M 144.23 420.82 L 156.85 458.68 C 157.5519797447542 460.78389376010114 159.522086493964 462.20204831167956 161.73999999999998 462.2 L 181.40999999999997 462.2 C 183.46691804573416 462.2031404015392 185.32763887602627 460.9797066209454 186.13999999999996 459.09 L 194.93999999999997 438.66999999999996" stroke-linecap="round" />
</clipPath>
<path style="stroke: none; stroke-width: 1; stroke-dasharray: none; stroke-linecap: butt; stroke-dashoffset: 0; stroke-linejoin: miter; stroke-miterlimit: 4; fill: rgb(0,0,0); fill-rule: nonzero; opacity: 0.3;" vector-effect="non-scaling-stroke"  transform=" translate(-171.57, -441.51)" d="M 150.56 420.82 L 161 458.68 C 161.406017848449 460.6338657267686 163.06830906677075 462.0750640244268 165.06 462.2 L 181.37 462.2 C 183.2062815447171 462.10562455724227 184.7804871379844 460.85670124217563 185.29 459.09 L 192.59 438.66999999999996" stroke-linecap="round" />
</g>
		<g transform="matrix(1 0 0 1 -78.71 197.35)" id="k2peYao8C31eRXXo1JxCE"  >
<path style="stroke: rgb(38,50,56); stroke-width: 1; stroke-dasharray: none; stroke-linecap: round; stroke-dashoffset: 0; stroke-linejoin: round; stroke-miterlimit: 4; fill: none; fill-rule: nonzero; opacity: 1;" vector-effect="non-scaling-stroke"  transform=" translate(-169.58, -441.51)" d="M 144.23 420.82 L 156.85 458.68 C 157.5519797447542 460.78389376010114 159.522086493964 462.20204831167956 161.73999999999998 462.2 L 181.40999999999997 462.2 C 183.46691804573416 462.2031404015392 185.32763887602627 460.9797066209454 186.13999999999996 459.09 L 194.93999999999997 438.66999999999996" stroke-linecap="round" />
</g>
		<g transform="matrix(1 0 0 1 -34.49 197.35)" id="R5yN2DAeege4LfELd4MrJ"  >
<path style="stroke: rgb(38,50,56); stroke-width: 1; stroke-dasharray: none; stroke-linecap: round; stroke-dashoffset: 0; stroke-linejoin: round; stroke-miterlimit: 4; fill: rgb(38,50,56); fill-rule: nonzero; opacity: 1;" vector-effect="non-scaling-stroke"  transform=" translate(-213.81, -441.51)" d="M 239.15 420.82 L 226.54000000000002 458.68 C 225.83802025524582 460.78389376010114 223.86791350603602 462.20204831167956 221.65000000000003 462.2 L 202 462.2 C 199.9430819542658 462.2031404015392 198.0823611239737 460.9797066209454 197.27 459.09 L 188.47 438.66999999999996" stroke-linecap="round" />
</g>
		<g transform="matrix(1 0 0 1 7.29 197.35)" id="VRwHtL4bZkrgwcaGJoVEi"  >
<path style="stroke: none; stroke-width: 1; stroke-dasharray: none; stroke-linecap: butt; stroke-dashoffset: 0; stroke-linejoin: miter; stroke-miterlimit: 4; fill: rgb(255,193,0); fill-rule: nonzero; opacity: 1;" vector-effect="non-scaling-stroke"  transform=" translate(-255.58, -441.51)" d="M 280.94 420.82 L 268.32 458.68 C 267.6180202552458 460.78389376010114 265.647913506036 462.20204831167956 263.43 462.2 L 243.76 462.2 C 241.7030819542658 462.2031404015392 239.8423611239737 460.9797066209454 239.03 459.09 L 230.23 438.66999999999996" stroke-linecap="round" />
</g>
		<g transform="matrix(1 0 0 1 5.2 197.34)" id="pfkmqAkG_-bo-6UsHlO8V" clip-path="url(#CLIPPATH_21)"  >
<clipPath id="CLIPPATH_21" >
	<path transform="matrix(1 0 0 1 2.09 0) translate(-255.58, -441.51)" id="freepik--clip-path-2--inject-7" d="M 280.94 420.82 L 268.32 458.68 C 267.6180202552458 460.78389376010114 265.647913506036 462.20204831167956 263.43 462.2 L 243.76 462.2 C 241.7030819542658 462.2031404015392 239.8423611239737 460.9797066209454 239.03 459.09 L 230.23 438.66999999999996" stroke-linecap="round" />
</clipPath>
<path style="stroke: none; stroke-width: 1; stroke-dasharray: none; stroke-linecap: butt; stroke-dashoffset: 0; stroke-linejoin: miter; stroke-miterlimit: 4; fill: rgb(0,0,0); fill-rule: nonzero; opacity: 0.3;" vector-effect="non-scaling-stroke"  transform=" translate(-253.5, -441.51)" d="M 272 420.82 L 263.37 458.68 C 262.89 460.78000000000003 261.55 462.2 260.03000000000003 462.2 L 246.58 462.2 C 245.18 462.2 243.91000000000003 460.97999999999996 243.35000000000002 459.09 L 234.99 439.09" stroke-linecap="round" />
</g>
		<g transform="matrix(1 0 0 1 7.29 197.35)" id="3hD-vX26cKXoDL5jicze-"  >
<path style="stroke: rgb(38,50,56); stroke-width: 1; stroke-dasharray: none; stroke-linecap: round; stroke-dashoffset: 0; stroke-linejoin: round; stroke-miterlimit: 4; fill: none; fill-rule: nonzero; opacity: 1;" vector-effect="non-scaling-stroke"  transform=" translate(-255.58, -441.51)" d="M 280.94 420.82 L 268.32 458.68 C 267.6180202552458 460.78389376010114 265.647913506036 462.20204831167956 263.43 462.2 L 243.76 462.2 C 241.7030819542658 462.2031404015392 239.8423611239737 460.9797066209454 239.03 459.09 L 230.23 438.66999999999996" stroke-linecap="round" />
</g>
		<g transform="matrix(1 0 0 1 -34.8 103.47)" id="Fg4b6Z2DGt_PPotAimif2"  >
<path style="stroke: none; stroke-width: 1; stroke-dasharray: none; stroke-linecap: butt; stroke-dashoffset: 0; stroke-linejoin: miter; stroke-miterlimit: 4; fill: rgb(255,193,0); fill-rule: nonzero; opacity: 1;" vector-effect="non-scaling-stroke"  transform=" translate(-108.17, -98.1)" d="M 0 98.1 C 0 43.920869999999994 48.42936 0 108.17 0 C 167.91064 0 216.34 43.92087 216.34 98.1 C 216.34 152.27913 167.91064 196.2 108.17 196.2 C 48.42936 196.2 0 152.27912999999998 0 98.1 z" stroke-linecap="round" />
</g>
		<g transform="matrix(1 0 0 1 -25.57 117.68)" id="PzOdM1nAxy6KWZvnLgVWB" clip-path="url(#CLIPPATH_22)"  >
<clipPath id="CLIPPATH_22" >
	<ellipse transform="matrix(1 0 0 1 -9.23 -14.21)" id="freepik--clip-path-3--inject-7" cx="0" cy="0" rx="108.17" ry="98.1" />
</clipPath>
<path style="stroke: none; stroke-width: 1; stroke-dasharray: none; stroke-linecap: butt; stroke-dashoffset: 0; stroke-linejoin: miter; stroke-miterlimit: 4; fill: rgb(0,0,0); fill-rule: nonzero; opacity: 0.3;" vector-effect="non-scaling-stroke"  transform=" translate(-222.73, -361.84)" d="M 288 280.6 C 294.34316526300654 293.17972234720713 297.64829064811323 307.07152396585246 297.65 321.16 C 297.65 375.34000000000003 249.21999999999997 419.26 189.47999999999996 419.26 C 167.24859085046364 419.372510809378 145.4581397190117 413.0593569995008 126.72999999999993 401.08 C 145.58999999999997 426.39 177.51999999999995 443.08 213.72999999999996 443.08 C 271.72999999999996 443.08 318.72999999999996 400.46999999999997 318.72999999999996 347.9 C 318.67 321.59 306.93 297.82 288 280.6 Z" stroke-linecap="round" />
</g>
		<g transform="matrix(1 0 0 1 -34.8 103.47)" id="nn2-RSl1g1LlPQ_Wenv_f"  >
<path style="stroke: rgb(38,50,56); stroke-width: 1; stroke-dasharray: none; stroke-linecap: butt; stroke-dashoffset: 0; stroke-linejoin: miter; stroke-miterlimit: 4; fill: none; fill-rule: nonzero; opacity: 1;" vector-effect="non-scaling-stroke"  transform=" translate(-108.17, -98.1)" d="M 0 98.1 C 0 43.920869999999994 48.42936 0 108.17 0 C 167.91064 0 216.34 43.92087 216.34 98.1 C 216.34 152.27913 167.91064 196.2 108.17 196.2 C 48.42936 196.2 0 152.27912999999998 0 98.1 z" stroke-linecap="round" />
</g>
		<g transform="matrix(1 0 0 1 51.68 138.19)" id="cvGTQa-bYmlSaM5qK_EJz"  >
<path style="stroke: rgb(255,193,0); stroke-width: 2; stroke-dasharray: none; stroke-linecap: round; stroke-dashoffset: 0; stroke-linejoin: round; stroke-miterlimit: 4; fill: none; fill-rule: nonzero; opacity: 1;" vector-effect="non-scaling-stroke"  transform=" translate(-299.98, -382.36)" d="M 312.57 356.43 C 310.21 376.19 301.09999999999997 394.12 287.38 408.28000000000003" stroke-linecap="round" />
</g>
		<g transform="matrix(1 0 0 1 63.68 91.94)" id="02SOTv8iI3GXqTYj-qcg_"  >
<path style="stroke: rgb(255,193,0); stroke-width: 2; stroke-dasharray: none; stroke-linecap: round; stroke-dashoffset: 0; stroke-linejoin: round; stroke-miterlimit: 4; fill: none; fill-rule: nonzero; opacity: 1;" vector-effect="non-scaling-stroke"  transform=" translate(-311.98, -336.1)" d="M 310.78 326 C 312.3759027096838 332.61814256801057 313.18152550904017 339.40215789092366 313.17999999999995 346.2099999999999" stroke-linecap="round" />
</g>
		<g transform="matrix(1 0 0 1 -39.27 9.92)" id="r1pgD3wN0Od0lu_6rCGk_"  >
<path style="stroke: rgb(38,50,56); stroke-width: 4; stroke-dasharray: none; stroke-linecap: round; stroke-dashoffset: 0; stroke-linejoin: round; stroke-miterlimit: 4; fill: none; fill-rule: nonzero; opacity: 1;" vector-effect="non-scaling-stroke"  transform=" translate(-209.03, -254.09)" d="M 186.68 255.65 C 195.59293584465405 253.56636147837392 204.71675669846354 252.51942065219203 213.87000000000003 252.53 C 219.73008057167345 252.52883820441062 225.58238531173055 252.9566480312109 231.37999999999997 253.81" stroke-linecap="round" />
</g>
		<g transform="matrix(1 0 0 1 -34.31 47.06)" id="eTiUKLiim-zLz31gQOV6v"  >
<path style="stroke: rgb(38,50,56); stroke-width: 1; stroke-dasharray: none; stroke-linecap: round; stroke-dashoffset: 0; stroke-linejoin: round; stroke-miterlimit: 4; fill: rgb(255,193,0); fill-rule: nonzero; opacity: 1;" vector-effect="non-scaling-stroke"  transform=" translate(-213.98, -291.22)" d="M 234.72 324.13 C 234.72 324.13 245.22 317 245.6 303.88 C 245.98 290.76 228.72 271.64 214.85 263.76 C 200.98 255.88 190.85 257.39 190.48 263.01 C 190.10999999999999 268.63 185.23 275.01 183.35999999999999 285.88 C 181.48999999999998 296.75 180.73 312.88 195.35999999999999 318.13" stroke-linecap="round" />
</g>
		<g transform="matrix(1 0 0 1 -42.08 46.88)" id="McWHn7-xyg2gjoQcQd_lU"  >
<path style="stroke: none; stroke-width: 1; stroke-dasharray: none; stroke-linecap: butt; stroke-dashoffset: 0; stroke-linejoin: miter; stroke-miterlimit: 4; fill: rgb(0,0,0); fill-rule: nonzero; opacity: 0.3;" vector-effect="non-scaling-stroke"  transform=" translate(-206.22, -291.04)" d="M 212.13 319.92 L 214.28 320.24 C 223.5 321.57 226.74 315.55 226.47 306.51 C 226.1 293.76 209.23 266.76 202.1 263.01 C 194.97 259.26 192.73 264.51 192.73 264.51 C 192.73 264.51 193.73 265.18 190.22 276.83 C 188.6 282.21 182.57 300.96999999999997 188.54 309.28999999999996 C 193.82 316.64 203.63 318.65 212.13 319.92 Z" stroke-linecap="round" />
</g>
		<g transform="matrix(1 0 0 1 -13.7 47.09)" id="1IEPyX7843F1pDIOAAhvD"  >
<path style="stroke: none; stroke-width: 1; stroke-dasharray: none; stroke-linecap: butt; stroke-dashoffset: 0; stroke-linejoin: miter; stroke-miterlimit: 4; fill: rgb(0,0,0); fill-rule: nonzero; opacity: 0.3;" vector-effect="non-scaling-stroke"  transform=" translate(-234.59, -291.26)" d="M 242 307 L 241.86 307 C 241.59562908519703 306.96524058223025 241.35608885376794 306.82633679932314 241.19460290393954 306.614151772223 C 241.03311695411114 306.40196674512293 240.96306070510968 306.1340751525806 241 305.87 C 241.10832128684663 305.10101127014013 241.17176204330048 304.32636624396673 241.19 303.55 C 241.39 296.55 235.68 286.5 226.29 277.23 C 225.895116403871 276.8406392513693 225.89063925136927 276.20488359612904 226.28 275.81 C 226.6693607486307 275.415116403871 227.30511640387098 275.4106392513693 227.7 275.8 C 237.61999999999998 285.6 243.41 295.99 243.19 303.6 C 243.16848552911875 304.44961750930236 243.10172426026696 305.2974856237202 242.99 306.14000000000004 C 242.92026066978775 306.63323220314857 242.4981381080638 306.9999245294946 242 307 Z" stroke-linecap="round" />
</g>
		<g transform="matrix(1 0 0 1 -9.65 70.4)" id="wS2a_Zm6iKQfewaRLA1G9"  >
<path style="stroke: none; stroke-width: 1; stroke-dasharray: none; stroke-linecap: butt; stroke-dashoffset: 0; stroke-linejoin: miter; stroke-miterlimit: 4; fill: rgb(0,0,0); fill-rule: nonzero; opacity: 0.3;" vector-effect="non-scaling-stroke"  transform=" translate(-238.65, -314.56)" d="M 236.62 319.06 C 236.2337498081716 319.06131695967866 235.88127623753056 318.84007247793477 235.71454986893966 318.49165711793074 C 235.54782350034876 318.14324175792666 235.59665871955673 317.729959941163 235.84 317.43 C 237.48804829802305 315.41092973742195 238.80449107091164 313.1425975749062 239.74 310.71 C 239.93606108618994 310.1936137589082 240.5136137589082 309.93393891381004 241.03 310.12999999999994 C 241.5463862410918 310.3260610861899 241.80606108618994 310.9036137589082 241.61 311.41999999999996 C 240.59971144910548 314.05271949004566 239.17507119914285 316.50701679270634 237.39000000000001 318.68999999999994 C 237.2015799686062 318.9222769843366 236.9190832556736 319.0580221580835 236.62 319.06 Z" stroke-linecap="round" />
</g>
		<g transform="matrix(1 0 0 1 -112.88 115.36)" id="8_nOTM4d8iUT-Cc6YTnit"  >
<path style="stroke: none; stroke-width: 1; stroke-dasharray: none; stroke-linecap: butt; stroke-dashoffset: 0; stroke-linejoin: miter; stroke-miterlimit: 4; fill: rgb(0,0,0); fill-rule: nonzero; opacity: 0.3;" vector-effect="non-scaling-stroke"  transform=" translate(-22.12, -29.25)" d="M 0 29.25 C 0 13.095669999999998 9.90346 0 22.12 0 C 34.33654 0 44.24 13.09567 44.24 29.25 C 44.24 45.40433 34.33654 58.5 22.12 58.5 C 9.90346 58.5 0 45.40433 0 29.25 z" stroke-linecap="round" />
</g>
		<g transform="matrix(1 0 0 1 -114.29 113.21)" id="eFwZtDHsOdZGDCOLlpcuI"  >
<path style="stroke: rgb(38,50,56); stroke-width: 1; stroke-dasharray: none; stroke-linecap: butt; stroke-dashoffset: 0; stroke-linejoin: miter; stroke-miterlimit: 4; fill: rgb(255,193,0); fill-rule: nonzero; opacity: 1;" vector-effect="non-scaling-stroke"  transform=" translate(-22.12, -29.25)" d="M 0 29.25 C 0 13.095669999999998 9.90346 0 22.12 0 C 34.33654 0 44.24 13.09567 44.24 29.25 C 44.24 45.40433 34.33654 58.5 22.12 58.5 C 9.90346 58.5 0 45.40433 0 29.25 z" stroke-linecap="round" />
</g>
		<g transform="matrix(1 0 0 1 -125.77 109.8)" id="5RZlLAOtY8D2d7zewoLPD"  >
<path style="stroke: rgb(38,50,56); stroke-width: 1; stroke-dasharray: none; stroke-linecap: round; stroke-dashoffset: 0; stroke-linejoin: round; stroke-miterlimit: 4; fill: none; fill-rule: nonzero; opacity: 1;" vector-effect="non-scaling-stroke"  transform=" translate(-122.53, -353.96)" d="M 125.18 353.8 C 125.36000000000001 356.48 124.33000000000001 358.74 122.89 358.8 C 121.44999999999999 358.86 120.12 356.8 119.89 354.12 C 119.66 351.44 120.74 349.17 122.19 349.12 C 123.64 349.07 125 351.11 125.18 353.8 Z" stroke-linecap="round" />
</g>
		<g transform="matrix(1 0 0 1 -105.95 114.76)" id="-wuLv6XHU0eh_I13VNo0w"  >
<path style="stroke: rgb(38,50,56); stroke-width: 1; stroke-dasharray: none; stroke-linecap: round; stroke-dashoffset: 0; stroke-linejoin: round; stroke-miterlimit: 4; fill: none; fill-rule: nonzero; opacity: 1;" vector-effect="non-scaling-stroke"  transform=" translate(-142.35, -358.92)" d="M 145 358.77 C 145.18 361.46 144.15 363.71 142.71 363.77 C 141.27 363.83 139.94 361.77 139.71 359.08 C 139.48000000000002 356.39 140.56 354.14 142.01000000000002 354.08 C 143.46000000000004 354.02 144.79 356.08 145 358.77 Z" stroke-linecap="round" />
</g>
		<g transform="matrix(1 0 0 1 -94.78 133.43)" id="DnUGQuFiHK9LCoTiw9FAC"  >
<path style="stroke: rgb(38,50,56); stroke-width: 3; stroke-dasharray: none; stroke-linecap: round; stroke-dashoffset: 0; stroke-linejoin: round; stroke-miterlimit: 4; fill: none; fill-rule: nonzero; opacity: 1;" vector-effect="non-scaling-stroke"  transform=" translate(-153.51, -377.59)" d="M 177.71 365.72 C 177.49893589663085 367.6450437226852 177.04880088471424 369.5362826160364 176.37 371.35 C 170.63 386.86 149.85 393.57000000000005 129.32 386.89000000000004" stroke-linecap="round" />
</g>
		<g transform="matrix(1 0 0 1 -70.75 120.09)" id="4FFIfa71UhkXUPqeE9R2Z"  >
<line style="stroke: rgb(38,50,56); stroke-width: 3; stroke-dasharray: none; stroke-linecap: round; stroke-dashoffset: 0; stroke-linejoin: round; stroke-miterlimit: 4; fill: none; fill-rule: nonzero; opacity: 1;" vector-effect="non-scaling-stroke"  x1="-3.184999999999988" y1="0" x2="3.184999999999988" y2="0" />
</g>
		<g transform="matrix(1 0 0 1 -117.25 77.9)" id="d2rzSEmq0Dbnvp81gSOKl"  >
<path style="stroke: rgb(38,50,56); stroke-width: 1; stroke-dasharray: none; stroke-linecap: round; stroke-dashoffset: 0; stroke-linejoin: round; stroke-miterlimit: 4; fill: rgb(38,50,56); fill-rule: nonzero; opacity: 1;" vector-effect="non-scaling-stroke"  transform=" translate(-131.05, -322.07)" d="M 133.78 322.73 C 133.08 325.64000000000004 131.29 327.73 129.78 327.35 C 128.27 326.97 127.61 324.35 128.32 321.41 C 129.02999999999997 318.47 130.81 316.41 132.32 316.78000000000003 C 133.82999999999998 317.15000000000003 134.49 319.81 133.78 322.73 Z" stroke-linecap="round" />
</g>
		<g transform="matrix(1 0 0 1 -98.81 81.93)" id="E88M1GedUWGzTNuRa7zTo"  >
<path style="stroke: rgb(38,50,56); stroke-width: 1; stroke-dasharray: none; stroke-linecap: butt; stroke-dashoffset: 0; stroke-linejoin: miter; stroke-miterlimit: 4; fill: rgb(38,50,56); fill-rule: nonzero; opacity: 1;" vector-effect="non-scaling-stroke"  transform=" translate(-5.44, -2.81)" d="M 0 2.81 C 0 1.25808 2.43557 0 5.44 0 C 8.44443 0 10.88 1.25808 10.88 2.81 C 10.88 4.36192 8.44443 5.62 5.44 5.62 C 2.4355700000000002 5.62 0 4.36192 0 2.81 z" stroke-linecap="round" />
</g>
		<g transform="matrix(1 0 0 1 -42.3 202.67)" id="Fn6RJqt1aiNAUab1U8UYa"  >
<path style="stroke: none; stroke-width: 1; stroke-dasharray: none; stroke-linecap: butt; stroke-dashoffset: 0; stroke-linejoin: miter; stroke-miterlimit: 4; fill: rgb(255,193,0); fill-rule: nonzero; opacity: 1;" vector-effect="non-scaling-stroke"  transform=" translate(-206, -446.83)" d="M 179.76 433 L 190.76 459.1 C 191.567194870268 461.0085227237572 193.4377978861437 462.2490278816537 195.51 462.25 L 215.51 462.25 C 217.5621881536443 462.247018060609 219.41833215434724 461.0305177641652 220.23999999999998 459.15 L 232.23999999999998 431.41999999999996 L 231.71999999999997 431.41999999999996" stroke-linecap="round" />
</g>
		<g transform="matrix(1 0 0 1 -42.72 201.22)" id="bGQmxMqgsGMsoBEq1KDBk" clip-path="url(#CLIPPATH_23)"  >
<clipPath id="CLIPPATH_23" >
	<path transform="matrix(1 0 0 1 0.42 1.45) translate(-206, -446.83)" id="freepik--clip-path-4--inject-7" d="M 179.76 433 L 190.76 459.1 C 191.567194870268 461.0085227237572 193.4377978861437 462.2490278816537 195.51 462.25 L 215.51 462.25 C 217.5621881536443 462.247018060609 219.41833215434724 461.0305177641652 220.23999999999998 459.15 L 232.23999999999998 431.41999999999996 L 231.71999999999997 431.41999999999996" stroke-linecap="round" />
</clipPath>
<path style="stroke: none; stroke-width: 1; stroke-dasharray: none; stroke-linecap: butt; stroke-dashoffset: 0; stroke-linejoin: miter; stroke-miterlimit: 4; fill: rgb(0,0,0); fill-rule: nonzero; opacity: 0.3;" vector-effect="non-scaling-stroke"  transform=" translate(-205.58, -445.38)" d="M 203 429.67 C 196.66 429.67 189.28 430.5 183.31 429.12 L 193.59 459.05 C 194.09177983810144 460.83225542570483 195.67125353552365 462.09824579386765 197.52 462.2 L 214 462.2 C 215.8260422031909 462.09875879056244 217.38936950918338 460.8561140088761 217.9 459.09999999999997 L 227.85 428.56999999999994 L 223.85 429.11999999999995 C 211.16 430.5 211.49 429.67 203 429.67 Z" stroke-linecap="round" />
</g>
		<g transform="matrix(1 0 0 1 -42.3 202.67)" id="sOSICgvP1ng79OE2StqIH"  >
<path style="stroke: rgb(38,50,56); stroke-width: 1; stroke-dasharray: none; stroke-linecap: round; stroke-dashoffset: 0; stroke-linejoin: round; stroke-miterlimit: 4; fill: none; fill-rule: nonzero; opacity: 1;" vector-effect="non-scaling-stroke"  transform=" translate(-206, -446.83)" d="M 179.76 433 L 190.76 459.1 C 191.567194870268 461.0085227237572 193.4377978861437 462.2490278816537 195.51 462.25 L 215.51 462.25 C 217.5621881536443 462.247018060609 219.41833215434724 461.0305177641652 220.23999999999998 459.15 L 232.23999999999998 431.41999999999996 L 231.71999999999997 431.41999999999996" stroke-linecap="round" />
</g>
		<g transform="matrix(1 0 0 1 40.29 -126.87)" id="joAfd1gdMtlzZJaEMA2c4"  >
<path style="stroke: none; stroke-width: 1; stroke-dasharray: none; stroke-linecap: butt; stroke-dashoffset: 0; stroke-linejoin: miter; stroke-miterlimit: 4; fill: rgb(255,255,255); fill-rule: nonzero; opacity: 1;" vector-effect="non-scaling-stroke"  transform=" translate(-288.59, -117.29)" d="M 379 26.44 L 323.69 106.13 C 323.69 106.13 318.96 117.41 313.14 125.78 C 307.32 134.15 291 142.52 291 142.52 C 291 142.52 289.55 158.16000000000003 284.82 163.62 C 280.09 169.07999999999998 269.9 165.81 269.9 165.81 C 269.9 165.81 265.53 170.54 260.79999999999995 172.72 C 256.06999999999994 174.9 241.51999999999995 166.9 241.51999999999995 166.9 C 241.51999999999995 166.9 254.60999999999996 181.09 256.42999999999995 185.82 C 258.24999999999994 190.54999999999998 261.53 194.54999999999998 255.70999999999995 198.92 C 249.88999999999993 203.29 243.32999999999996 197.1 243.32999999999996 197.1 C 243.32999999999996 197.1 246.24999999999994 206.56 237.87999999999997 208.38 C 229.51 210.2 220.39 192 216.75 185.82 C 213.11 179.64 202.56 156.34 200.75 155.25 C 198.94 154.16 196.39 148.34 200.03 142.88 C 203.67000000000002 137.42 229.49 102.49 232.4 100 C 235.31 97.51 291 84.3 291 84.3 L 312.11 26.08" stroke-linecap="round" />
</g>
		<g transform="matrix(1 0 0 1 27.46 -103.26)" id="BNM0KiTge8l2TP0hn9jZD" clip-path="url(#CLIPPATH_24)"  >
<clipPath id="CLIPPATH_24" >
	<path transform="matrix(1 0 0 1 12.83 -23.61) translate(-288.59, -117.29)" id="freepik--clip-path-5--inject-7" d="M 379 26.44 L 323.69 106.13 C 323.69 106.13 318.96 117.41 313.14 125.78 C 307.32 134.15 291 142.52 291 142.52 C 291 142.52 289.55 158.16000000000003 284.82 163.62 C 280.09 169.07999999999998 269.9 165.81 269.9 165.81 C 269.9 165.81 265.53 170.54 260.79999999999995 172.72 C 256.06999999999994 174.9 241.51999999999995 166.9 241.51999999999995 166.9 C 241.51999999999995 166.9 254.60999999999996 181.09 256.42999999999995 185.82 C 258.24999999999994 190.54999999999998 261.53 194.54999999999998 255.70999999999995 198.92 C 249.88999999999993 203.29 243.32999999999996 197.1 243.32999999999996 197.1 C 243.32999999999996 197.1 246.24999999999994 206.56 237.87999999999997 208.38 C 229.51 210.2 220.39 192 216.75 185.82 C 213.11 179.64 202.56 156.34 200.75 155.25 C 198.94 154.16 196.39 148.34 200.03 142.88 C 203.67000000000002 137.42 229.49 102.49 232.4 100 C 235.31 97.51 291 84.3 291 84.3 L 312.11 26.08" stroke-linecap="round" />
</clipPath>
<path style="stroke: none; stroke-width: 1; stroke-dasharray: none; stroke-linecap: butt; stroke-dashoffset: 0; stroke-linejoin: miter; stroke-miterlimit: 4; fill: rgb(0,0,0); fill-rule: nonzero; opacity: 0.2;" vector-effect="non-scaling-stroke"  transform=" translate(-275.76, -140.9)" d="M 318 107 C 318 107 312 125 305.5 128.5 C 299 132 262 141.5 247.5 139.5 C 233 137.5 225 132 225 132 C 225 132 217 142.5 213.5 146 C 211.0628348625828 148.26342006094046 208.1624345287702 149.96953790435967 205 151 C 205 151 222.4 194.71 234.91 208.24 C 235.88196226703693 208.54023094250883 236.91430130664264 208.5884067643571 237.91 208.38 C 246.28 206.56 243.35999999999999 197.1 243.35999999999999 197.1 C 243.35999999999999 197.1 249.91 203.28 255.73999999999998 198.92 C 261.56999999999994 194.55999999999997 258.28 190.54999999999998 256.46 185.82 C 254.64 181.09 241.5 166.9 241.5 166.9 C 241.5 166.9 256.05 174.9 260.78 172.72 C 265.50999999999993 170.54 269.88 165.8 269.88 165.8 C 269.88 165.8 280.07 169.08 284.8 163.62 C 289.53000000000003 158.16 290.98 142.52 290.98 142.52 C 290.98 142.52 307.35 134.15 313.18 125.78000000000002 C 319.01 117.41000000000003 323.73 106.13000000000002 323.73 106.13000000000002 L 346.52 73.3 Z" stroke-linecap="round" />
</g>
		<g transform="matrix(1 0 0 1 40.29 -126.87)" id="bcUxmwveD1Mm7IGDk6Jgg"  >
<path style="stroke: rgb(38,50,56); stroke-width: 1; stroke-dasharray: none; stroke-linecap: round; stroke-dashoffset: 0; stroke-linejoin: round; stroke-miterlimit: 4; fill: none; fill-rule: nonzero; opacity: 1;" vector-effect="non-scaling-stroke"  transform=" translate(-288.59, -117.29)" d="M 379 26.44 L 323.69 106.13 C 323.69 106.13 318.96 117.41 313.14 125.78 C 307.32 134.15 291 142.52 291 142.52 C 291 142.52 289.55 158.16000000000003 284.82 163.62 C 280.09 169.07999999999998 269.9 165.81 269.9 165.81 C 269.9 165.81 265.53 170.54 260.79999999999995 172.72 C 256.06999999999994 174.9 241.51999999999995 166.9 241.51999999999995 166.9 C 241.51999999999995 166.9 254.60999999999996 181.09 256.42999999999995 185.82 C 258.24999999999994 190.54999999999998 261.53 194.54999999999998 255.70999999999995 198.92 C 249.88999999999993 203.29 243.32999999999996 197.1 243.32999999999996 197.1 C 243.32999999999996 197.1 246.24999999999994 206.56 237.87999999999997 208.38 C 229.51 210.2 220.39 192 216.75 185.82 C 213.11 179.64 202.56 156.34 200.75 155.25 C 198.94 154.16 196.39 148.34 200.03 142.88 C 203.67000000000002 137.42 229.49 102.49 232.4 100 C 235.31 97.51 291 84.3 291 84.3 L 312.11 26.08" stroke-linecap="round" />
</g>
		<g transform="matrix(1 0 0 1 -35.91 -32.51)" id="67HM3ZCwkXXNMYZY7l9Mj"  >
<path style="stroke: rgb(38,50,56); stroke-width: 1; stroke-dasharray: none; stroke-linecap: butt; stroke-dashoffset: 0; stroke-linejoin: miter; stroke-miterlimit: 4; fill: rgb(255,255,255); fill-rule: nonzero; opacity: 1;" vector-effect="non-scaling-stroke"  transform=" translate(-212.39, -211.65)" d="M 189.83 238.94 L 191.28 244.4 L 213.84 238.94 L 234.95 183.63 L 221.11999999999998 178.9 z" stroke-linecap="round" />
</g>
		<g transform="matrix(1 0 0 1 -46.28 -38.34)" id="2ReeKZFt9dSbRzRrXJppY"  >
<path style="stroke: rgb(38,50,56); stroke-width: 1; stroke-dasharray: none; stroke-linecap: butt; stroke-dashoffset: 0; stroke-linejoin: miter; stroke-miterlimit: 4; fill: rgb(255,255,255); fill-rule: nonzero; opacity: 1;" vector-effect="non-scaling-stroke"  transform=" translate(-202.01, -205.83)" d="M 196.74 165.44 L 228.03 177.09 L 212.75 246.22 L 176 234.94 z" stroke-linecap="round" />
</g>
		<g transform="matrix(1 0 0 1 -47.67 -39.1)" id="xTaZE4BsyiNBEyLo8IVXL"  >
<path style="stroke: rgb(38,50,56); stroke-width: 1; stroke-dasharray: none; stroke-linecap: butt; stroke-dashoffset: 0; stroke-linejoin: miter; stroke-miterlimit: 4; fill: rgb(255,193,0); fill-rule: nonzero; opacity: 1;" vector-effect="non-scaling-stroke"  transform=" translate(-200.63, -205.06)" d="M 177.23 230.81 L 209.83999999999997 240.4 L 224.02999999999997 178.9 L 195.45999999999998 169.72 z" stroke-linecap="round" />
</g>
		<g transform="matrix(1 0 0 1 -55.1 -43.79)" id="0qM9eS-z35r3O7-4dDJvR"  >
<path style="stroke: rgb(38,50,56); stroke-width: 1; stroke-dasharray: none; stroke-linecap: round; stroke-dashoffset: 0; stroke-linejoin: round; stroke-miterlimit: 4; fill: rgb(255,255,255); fill-rule: nonzero; opacity: 1;" vector-effect="non-scaling-stroke"  transform=" translate(-193.2, -200.38)" d="M 195.33 184.93 C 193.91077721065878 184.55438571673756 192.42770168346013 184.4861983361767 190.98000000000002 184.73000000000002 L 182.46 213.28000000000003 C 183.69315032714297 214.481699136584 185.21018358537984 215.3520152688605 186.87 215.81000000000003 C 193.55 217.65000000000003 200.87 212.22000000000003 203.21 203.69000000000003 C 205.55 195.16000000000003 202 186.76 195.33 184.93 Z" stroke-linecap="round" />
</g>
		<g transform="matrix(1 0 0 1 -57.04 -45.03)" id="T4A4jxVJyt42L0AbgPS6O"  >
<path style="stroke: none; stroke-width: 1; stroke-dasharray: none; stroke-linecap: butt; stroke-dashoffset: 0; stroke-linejoin: miter; stroke-miterlimit: 4; fill: rgb(38,50,56); fill-rule: nonzero; opacity: 1;" vector-effect="non-scaling-stroke"  transform=" translate(-191.26, -199.14)" d="M 194.12 189.66 C 194.03176584971715 189.62015922523375 193.98220202052315 189.52516188594527 194 189.43 L 194.38 187.95000000000002 C 194.42691413838966 187.8236363775464 194.41331991307356 187.68274066895648 194.3431118770244 187.5676774987648 C 194.27290384097523 187.45261432857308 194.1538287755002 187.37607981058864 194.01999999999998 187.36 L 192.42999999999998 186.98000000000002 C 192.30372918397163 186.92874730545316 192.16063805740419 186.94038366981889 192.0443074810741 187.01136503842707 C 191.927976904744 187.08234640703526 191.8521792519545 187.20426929787038 191.83999999999997 187.34000000000003 L 191.52999999999997 188.87000000000003 C 191.50593726889912 188.96451508454544 191.41721029006212 189.02789149800043 191.31999999999996 189.02000000000004 C 190.77808377838707 188.9645035484102 190.23191622161286 188.9645035484102 189.68999999999997 189.02000000000004 L 186.77999999999997 198.79000000000005 C 189.04999999999998 201.15000000000006 192.58999999999997 202.33000000000004 192.11999999999998 204.31000000000006 C 191.84999999999997 205.43000000000006 190.82999999999998 206.31000000000006 189.03999999999996 205.91000000000005 C 188.28261459711177 205.80871362662927 187.60672635798915 205.38303372861355 187.18819578327592 204.74371867641398 C 186.76966520856269 204.10440362421443 186.64987734543843 203.31467002659613 186.85999999999996 202.58000000000004 L 186.94999999999996 202.18000000000004 C 186.99999999999997 201.96000000000004 186.86999999999995 201.78000000000003 186.55999999999997 201.71000000000004 L 185.94999999999996 201.56000000000003 L 184.21999999999997 207.34000000000003 C 184.9148354530101 207.97167109451598 185.7268324911633 208.46090780369616 186.60999999999996 208.78000000000003 C 186.70255871481902 208.8206821790899 186.7529894856195 208.92154372069086 186.72999999999996 209.02000000000004 L 186.36999999999995 210.29000000000005 C 186.3139293739915 210.4160753515203 186.32336067497755 210.56164922037667 186.39523038842722 210.67943569519696 C 186.4671001018769 210.79722217001728 186.5922393947903 210.8721945522739 186.72999999999996 210.88000000000005 L 188.37999999999997 211.28000000000006 C 188.49755266521834 211.34244655520305 188.6373984300109 211.3469313834544 188.75871072835034 211.29214518420434 C 188.88002302668977 211.23735898495426 188.96912344081605 211.1294791081589 189 211 L 189.27 209.74 C 189.3005540872595 209.64436778532715 189.38960620131778 209.57960261146658 189.49 209.58 C 193.01000000000002 209.95000000000002 195.4 208.22 196.14000000000001 205.14000000000001 C 196.72000000000003 202.68 195.89000000000001 200.59 193.32000000000002 198.62 C 190.97000000000003 196.84 188.49 195.96 188.92000000000002 194.14000000000001 C 189.22000000000003 192.88000000000002 190.37 192.3 191.92000000000002 192.67000000000002 C 192.6963217658811 192.79493072032997 193.37911525262282 193.2532792059949 193.78874750582443 193.9244606912877 C 194.19837975902607 194.5956421765805 194.29383487046414 195.41245219215853 194.05 196.16000000000003 L 193.98000000000002 196.44000000000003 C 193.98000000000002 196.61 194.08 196.76000000000002 194.39000000000001 196.84000000000003 L 197.32000000000002 197.54000000000002 C 197.44636362245365 197.5869141383897 197.58725933104355 197.5733199130736 197.70232250123524 197.50311187702442 C 197.81738567142696 197.43290384097526 197.8939201894114 197.3138287755002 197.91000000000003 197.18 L 198.13000000000002 196.25 C 198.8 193.32 197.39 190.83 194.12 189.66 Z" stroke-linecap="round" />
</g>
		<g transform="matrix(1 0 0 1 7.75 -84.71)" id="kz512PvYzVXRbCOWtn-Pt"  >
<path style="stroke: none; stroke-width: 1; stroke-dasharray: none; stroke-linecap: butt; stroke-dashoffset: 0; stroke-linejoin: miter; stroke-miterlimit: 4; fill: rgb(255,255,255); fill-rule: nonzero; opacity: 1;" vector-effect="non-scaling-stroke"  transform=" translate(-256.05, -159.46)" d="M 222.57 129.05 C 222.57 129.05 226.94 135.60000000000002 227.67 141.43 C 228.29019075514043 146.3991050217167 227.12796948904747 151.42712934057622 224.39 155.62 C 222.20999999999998 158.89000000000001 220.02999999999997 161.8 218.20999999999998 166.9 C 216.39 172 216.02999999999997 179.27 213.48 182.9 C 210.93 186.53 209.48 190.17000000000002 213.10999999999999 193.45000000000002 C 216.73999999999998 196.73000000000002 226.20999999999998 196.36 231.30999999999997 186.9 C 236.40999999999997 177.44 239.67999999999998 167.25 242.95 163.61 C 246.22 159.97000000000003 256.78 151.61 256.78 151.61 C 256.78 151.61 285.52 147.61 290.97999999999996 142.52 C 296.43999999999994 137.43 301.16999999999996 123.60000000000001 301.16999999999996 123.60000000000001" stroke-linecap="round" />
</g>
		<g transform="matrix(1 0 0 1 6.76 -82.25)" id="b1Jf2zjC35mpcuti-qrls" clip-path="url(#CLIPPATH_25)"  >
<clipPath id="CLIPPATH_25" >
	<path transform="matrix(1 0 0 1 0.99 -2.46) translate(-256.05, -159.46)" id="freepik--clip-path-6--inject-7" d="M 222.57 129.05 C 222.57 129.05 226.94 135.60000000000002 227.67 141.43 C 228.29019075514043 146.3991050217167 227.12796948904747 151.42712934057622 224.39 155.62 C 222.20999999999998 158.89000000000001 220.02999999999997 161.8 218.20999999999998 166.9 C 216.39 172 216.02999999999997 179.27 213.48 182.9 C 210.93 186.53 209.48 190.17000000000002 213.10999999999999 193.45000000000002 C 216.73999999999998 196.73000000000002 226.20999999999998 196.36 231.30999999999997 186.9 C 236.40999999999997 177.44 239.67999999999998 167.25 242.95 163.61 C 246.22 159.97000000000003 256.78 151.61 256.78 151.61 C 256.78 151.61 285.52 147.61 290.97999999999996 142.52 C 296.43999999999994 137.43 301.16999999999996 123.60000000000001 301.16999999999996 123.60000000000001" stroke-linecap="round" />
</clipPath>
<path style="stroke: none; stroke-width: 1; stroke-dasharray: none; stroke-linecap: butt; stroke-dashoffset: 0; stroke-linejoin: miter; stroke-miterlimit: 4; fill: rgb(0,0,0); fill-rule: nonzero; opacity: 0.2;" vector-effect="non-scaling-stroke"  transform=" translate(-255.06, -161.91)" d="M 299 128.5 C 299 128.5 283.5 138.5 271.5 141.5 C 259.5 144.5 252 144.5 247.5 150.5 C 243 156.5 238.5 175.5 232.5 179 C 226.5 182.5 225.5 170 217 172.5 L 216.72 172.6 C 215.89 176.5 215.16 180.5 213.48 182.91 C 210.92999999999998 186.54999999999998 209.48 190.18 213.10999999999999 193.46 C 216.73999999999998 196.74 226.20999999999998 196.37 231.30999999999997 186.91 C 236.40999999999997 177.45 239.67999999999998 167.26 242.95 163.62 C 246.22 159.98000000000002 256.78 151.62 256.78 151.62 C 256.78 151.62 285.52 147.62 290.97999999999996 142.53 C 294.28 139.45 297.30999999999995 133.19 299.18999999999994 128.71 Z" stroke-linecap="round" />
</g>
		<g transform="matrix(1 0 0 1 7.75 -84.71)" id="gtxR_9PPhJ5ruFp3fFR8T"  >
<path style="stroke: rgb(38,50,56); stroke-width: 1; stroke-dasharray: none; stroke-linecap: round; stroke-dashoffset: 0; stroke-linejoin: round; stroke-miterlimit: 4; fill: none; fill-rule: nonzero; opacity: 1;" vector-effect="non-scaling-stroke"  transform=" translate(-256.05, -159.46)" d="M 222.57 129.05 C 222.57 129.05 226.94 135.60000000000002 227.67 141.43 C 228.29019075514043 146.3991050217167 227.12796948904747 151.42712934057622 224.39 155.62 C 222.20999999999998 158.89000000000001 220.02999999999997 161.8 218.20999999999998 166.9 C 216.39 172 216.02999999999997 179.27 213.48 182.9 C 210.93 186.53 209.48 190.17000000000002 213.10999999999999 193.45000000000002 C 216.73999999999998 196.73000000000002 226.20999999999998 196.36 231.30999999999997 186.9 C 236.40999999999997 177.44 239.67999999999998 167.25 242.95 163.61 C 246.22 159.97000000000003 256.78 151.61 256.78 151.61 C 256.78 151.61 285.52 147.61 290.97999999999996 142.52 C 296.43999999999994 137.43 301.16999999999996 123.60000000000001 301.16999999999996 123.60000000000001" stroke-linecap="round" />
</g>
		<g transform="matrix(1 0 0 1 -28.82 -96.25)" id="alZORT-gFjABw1mY617n2"  >
<path style="stroke: rgb(38,50,56); stroke-width: 1; stroke-dasharray: none; stroke-linecap: round; stroke-dashoffset: 0; stroke-linejoin: round; stroke-miterlimit: 4; fill: none; fill-rule: nonzero; opacity: 1;" vector-effect="non-scaling-stroke"  transform=" translate(-219.48, -147.92)" d="M 211.29 147.25 C 211.29 147.25 220.76 152.34 227.67 146.52" stroke-linecap="round" />
</g>
		<g transform="matrix(1 0 0 1 -9.17 -55.07)" id="fjL6zd3VXwafZehmhZWkz"  >
<line style="stroke: rgb(38,50,56); stroke-width: 1; stroke-dasharray: none; stroke-linecap: round; stroke-dashoffset: 0; stroke-linejoin: round; stroke-miterlimit: 4; fill: none; fill-rule: nonzero; opacity: 1;" vector-effect="non-scaling-stroke"  x1="4.180000000000007" y1="8.004999999999995" x2="-4.180000000000007" y2="-8.004999999999995" />
</g>
		<g transform="matrix(1 0 0 1 24.68 -87.09)" id="Ei5vjwyneCnvJ1qJgOO_l"  >
<path style="stroke: rgb(38,50,56); stroke-width: 1; stroke-dasharray: none; stroke-linecap: round; stroke-dashoffset: 0; stroke-linejoin: round; stroke-miterlimit: 4; fill: none; fill-rule: nonzero; opacity: 1;" vector-effect="non-scaling-stroke"  transform=" translate(-272.98, -157.07)" d="M 269.88 165.81 C 269.88 165.81 276.43 160.35 276.06 148.34" stroke-linecap="round" />
</g>
</g>
</g>
</svg>