<?xml version="1.0" encoding="UTF-8" standalone="no" ?>
<!DOCTYPE svg PUBLIC "-//W3C//DTD SVG 1.1//EN" "http://www.w3.org/Graphics/SVG/1.1/DTD/svg11.dtd">
<svg xmlns="http://www.w3.org/2000/svg" xmlns:xlink="http://www.w3.org/1999/xlink" version="1.1" width="325.5963216" height="325.5963216" viewBox="461.4218392 60.171839199999994 325.5963216 325.5963216" xml:space="preserve">
<desc>Created with Fabric.js 4.6.0</desc>
<defs>
</defs>
<g transform="matrix(3.74 0 0 3.74 624.22 222.97)" id="pS175basZsN0yVAVJU4IG"  >
<path style="stroke: rgb(17,165,206); stroke-width: 0; stroke-dasharray: none; stroke-linecap: butt; stroke-dashoffset: 0; stroke-linejoin: miter; stroke-miterlimit: 4; fill: rgb(255,222,80); fill-rule: nonzero; opacity: 1;" vector-effect="non-scaling-stroke"  transform=" translate(0, 0)" d="M 0 -43.52892 C 24.02796 -43.52892 43.52892 -24.02797 43.52892 0 C 43.52892 24.02796 24.02797 43.52892 0 43.52892 C -24.02796 43.52892 -43.52892 24.02797 -43.52892 0 C -43.52892 -24.02796 -24.02797 -43.52892 0 -43.52892 z" stroke-linecap="round" />
</g>
<g transform="matrix(0.4 0 0 0.47 624.22 228.26)" id="zztrN9HX9FylWhnlqEJZe"  >
<g style="" vector-effect="non-scaling-stroke"   >
		<g transform="matrix(1 0 0 1 -333.53 -181)" id="nVKnwoFdRFy5MOktRd5SJ"  >
<path style="stroke: none; stroke-width: 1; stroke-dasharray: none; stroke-linecap: butt; stroke-dashoffset: 0; stroke-linejoin: miter; stroke-miterlimit: 4; fill: rgb(242,242,242); fill-rule: nonzero; opacity: 1;" vector-effect="non-scaling-stroke"  transform=" translate(-266.47, -269)" d="M 266.47153 317 C 239.9618620081219 317 218.47152999999997 295.5096679918781 218.47152999999997 269 C 218.47152999999997 242.49033200812192 239.9618620081219 221 266.47153 221 C 292.98119799187805 221 314.47153 242.4903320081219 314.47153 269 C 314.4415672272715 295.4972470813751 292.9687770813751 316.9700372272715 266.47153 317 Z M 266.47153 223 C 241.06643150778348 223 220.47152999999997 243.5949015077835 220.47152999999997 269 C 220.47152999999997 294.4050984922165 241.06643150778348 315 266.47153 315 C 291.87662849221647 315 312.47153 294.4050984922165 312.47153 269 C 312.4427467100569 243.60683349278253 291.8646965072174 223.02878328994305 266.4715299999999 223 Z" stroke-linecap="round" />
</g>
		<g transform="matrix(1 0 0 1 -7.53 -185)" id="bUSbXZnWSDNC5fZyqQz4o"  >
<path style="stroke: none; stroke-width: 1; stroke-dasharray: none; stroke-linecap: butt; stroke-dashoffset: 0; stroke-linejoin: miter; stroke-miterlimit: 4; fill: rgb(242,242,242); fill-rule: nonzero; opacity: 1;" vector-effect="non-scaling-stroke"  transform=" translate(-592.47, -265)" d="M 592.47153 289 C 579.216696004061 289 568.47153 278.25483399593907 568.47153 265 C 568.47153 251.74516600406096 579.216696004061 241 592.47153 241 C 605.7263639959391 241 616.47153 251.74516600406093 616.47153 265 C 616.4564633804185 278.24858817930055 605.7201181793006 288.9849333804185 592.47153 289 Z M 592.47153 243 C 580.3212655037225 243 570.47153 252.84973550372254 570.47153 265 C 570.47153 277.1502644962775 580.3212655037225 287 592.47153 287 C 604.6217944962775 287 614.47153 277.1502644962775 614.47153 265 C 614.4578078313634 252.85542395329472 604.6161060467053 243.0137221686366 592.47153 243 Z" stroke-linecap="round" />
</g>
		<g transform="matrix(1 0 0 1 161.47 -71)" id="UR-Ja4yfyFddOEV7HbLCr"  >
<path style="stroke: none; stroke-width: 1; stroke-dasharray: none; stroke-linecap: butt; stroke-dashoffset: 0; stroke-linejoin: miter; stroke-miterlimit: 4; fill: rgb(242,242,242); fill-rule: nonzero; opacity: 1;" vector-effect="non-scaling-stroke"  transform=" translate(-761.47, -379)" d="M 761.47153 406 C 746.5598417545687 406 734.47153 393.91168824543144 734.47153 379 C 734.47153 364.08831175456856 746.5598417545687 352 761.47153 352 C 776.3832182454314 352 788.47153 364.08831175456856 788.47153 379 C 788.4546556628859 393.90469307063387 776.376223070634 405.9831256628858 761.47153 406 Z M 761.47153 354 C 747.6644112542302 354 736.47153 365.19288125423014 736.47153 379 C 736.47153 392.80711874576986 747.6644112542302 404 761.47153 404 C 775.2786487457698 404 786.47153 392.80711874576986 786.47153 379 C 786.4560056147111 365.19931678006753 775.2722132199325 354.015524385289 761.47153 354 Z" stroke-linecap="round" />
</g>
		<g transform="matrix(1 0 0 1 268.03 228)" id="plpA_WyxTdobZFSN3Yhmc"  >
<path style="stroke: none; stroke-width: 1; stroke-dasharray: none; stroke-linecap: butt; stroke-dashoffset: 0; stroke-linejoin: miter; stroke-miterlimit: 4; fill: rgb(204,204,204); fill-rule: nonzero; opacity: 1;" vector-effect="non-scaling-stroke"  transform=" translate(-868.03, -678)" d="M 980.52847 679 L 755.52847 679 C 754.9761852501691 679 754.52847 678.5522847498308 754.52847 678 C 754.52847 677.4477152501692 754.9761852501691 677 755.52847 677 L 980.52847 677 C 981.0807547498308 677 981.52847 677.4477152501692 981.52847 678 C 981.52847 678.5522847498308 981.0807547498308 679 980.52847 679 Z" stroke-linecap="round" />
</g>
		<g transform="matrix(1 0 0 1 259.39 -100.31)" id="4tgDdpVGliHmJPeNv2VhI"  >
<path style="stroke: none; stroke-width: 1; stroke-dasharray: none; stroke-linecap: butt; stroke-dashoffset: 0; stroke-linejoin: miter; stroke-miterlimit: 4; fill: rgb(255,184,184); fill-rule: nonzero; opacity: 1;" vector-effect="non-scaling-stroke"  transform=" translate(-24.56, -24.56)" d="M 0 24.56103 C 0 10.99635 10.99635 0 24.56103 0 C 38.12571 0 49.12206 10.99635 49.12206 24.56103 C 49.12206 38.12571 38.12571 49.12206 24.56103 49.12206 C 10.99635 49.12206 0 38.12571 0 24.56103 z" stroke-linecap="round" />
</g>
		<g transform="matrix(1 0 0 1 245.77 170.93)" id="RHVlgyxhZ-w1tHk-dskvd"  >
<path style="stroke: none; stroke-width: 1; stroke-dasharray: none; stroke-linecap: butt; stroke-dashoffset: 0; stroke-linejoin: miter; stroke-miterlimit: 4; fill: rgb(255,184,184); fill-rule: nonzero; opacity: 1;" vector-effect="non-scaling-stroke"  transform=" translate(-627.29, -399.93)" d="M 643.465 420.343 L 631.8570000000001 424.285 L 611.1240000000001 381.386 L 628.2570000000002 375.567 z" stroke-linecap="round" />
</g>
		<g transform="matrix(0.95 -0.32 0.32 0.95 247.45 200.42)" id="ikD6QQ8PzRazZtCYIAtk4"  >
<path style="stroke: none; stroke-width: 1; stroke-dasharray: none; stroke-linecap: butt; stroke-dashoffset: 0; stroke-linejoin: miter; stroke-miterlimit: 4; fill: rgb(47,46,65); fill-rule: nonzero; opacity: 1;" vector-effect="non-scaling-stroke"  transform=" translate(-847.45, -650.42)" d="M 843.0715 642.98141 L 866.71537 642.98141 L 866.71537 657.86828 L 828.18465 657.86828 L 828.18465 657.86828 C 828.1846473478342 653.9200392460671 829.7530773368571 650.1335071007189 832.5449032723565 647.3416774144921 C 835.3367292078558 644.5498477282651 839.123259246067 642.981412652164 843.0715 642.98141 Z" stroke-linecap="round" />
</g>
		<g transform="matrix(1 0 0 1 277.94 192.27)" id="ksL31sfj7dEeJsEcZkjZU"  >
<path style="stroke: none; stroke-width: 1; stroke-dasharray: none; stroke-linecap: butt; stroke-dashoffset: 0; stroke-linejoin: miter; stroke-miterlimit: 4; fill: rgb(255,184,184); fill-rule: nonzero; opacity: 1;" vector-effect="non-scaling-stroke"  transform=" translate(-659.47, -421.27)" d="M 669.694 444.575 L 657.4499999999999 445.19 L 649.2489999999999 398.255 L 667.3209999999999 397.346 z" stroke-linecap="round" />
</g>
		<g transform="matrix(1 -0.05 0.05 1 271.75 220.35)" id="S0G_GNszWM07SUpXAwy0E"  >
<path style="stroke: none; stroke-width: 1; stroke-dasharray: none; stroke-linecap: butt; stroke-dashoffset: 0; stroke-linejoin: miter; stroke-miterlimit: 4; fill: rgb(47,46,65); fill-rule: nonzero; opacity: 1;" vector-effect="non-scaling-stroke"  transform=" translate(-871.75, -670.35)" d="M 867.3677 662.90195 L 891.01157 662.90195 L 891.01157 677.7888200000001 L 852.48084 677.7888200000001 L 852.48084 677.7888200000001 C 852.4808373478339 673.8405775134574 854.0492687095681 670.0540438526442 856.8410968078897 667.2622138789586 C 859.6329249062113 664.470383905273 863.4194575134565 662.9019499999991 867.3677 662.90195 Z" stroke-linecap="round" />
</g>
		<g transform="matrix(1 0 0 1 212.46 36.34)" id="Xasp49vyf6BRj5MXVQ8cG"  >
<path style="stroke: none; stroke-width: 1; stroke-dasharray: none; stroke-linecap: butt; stroke-dashoffset: 0; stroke-linejoin: miter; stroke-miterlimit: 4; fill: rgb(255,184,184); fill-rule: nonzero; opacity: 1;" vector-effect="non-scaling-stroke"  transform=" translate(-812.46, -486.34)" d="M 815.30049 509.63 C 817.5231135865373 507.65105370977034 818.7550310515677 504.789265463775 818.664758580474 501.814683996071 C 818.5744861093804 498.8401025283669 817.1712967193725 496.0582843924469 814.83276 494.21776 L 826.50676 460.44357 L 808.51524 465.04131 L 800.18772 496.409 C 797.2926397209468 500.6353243350879 798.0161334170433 506.35906096783 801.8717880429857 509.73207662343674 C 805.727442668928 513.1050922790434 811.4965570780074 513.0612390666494 815.30049 509.63 Z" stroke-linecap="round" />
</g>
		<g transform="matrix(1 0 0 1 254.28 123.28)" id="yOO2QXJeBBgRTdFPDUHKr"  >
<path style="stroke: none; stroke-width: 1; stroke-dasharray: none; stroke-linecap: butt; stroke-dashoffset: 0; stroke-linejoin: miter; stroke-miterlimit: 4; fill: rgb(47,46,65); fill-rule: nonzero; opacity: 1;" vector-effect="non-scaling-stroke"  transform=" translate(-854.28, -573.28)" d="M 887.02144 651.42383 C 886.863065501141 651.4236356745095 886.7048094771462 651.415160772693 886.54732 651.3984399999999 L 869.92672 649.6386699999999 C 867.8220033321661 649.4263238507921 866.1539069862503 647.768416200057 865.92867 645.66504 L 853.08394 531.15527 L 843.78951 562.49027 L 861.11812 624.07327 C 861.475219617468 625.3425855901573 861.2576575056505 626.7046552502151 860.5229211260638 627.7995728985906 C 859.7881847464772 628.8944905469662 858.6102068191283 629.612080286321 857.30025 629.76273 L 840.45259 631.69925 C 838.2357937536868 631.9443051791429 836.1712614102732 630.53685743455 835.58931 628.38382 L 817.18062 559.08108 C 817.0289223141846 558.511403698994 816.9910901612001 557.9173984585664 817.06929 557.33308 L 825.34322 495.13435 L 887.05709 500.08308 L 891.51949 646.7862 C 891.5566180433914 648.0029768220502 891.0992371426182 649.1828931215068 890.2517027128149 650.0567407721775 C 889.4041682830116 650.930588422848 888.2387831397346 651.4238198390663 887.02144 651.4239 Z" stroke-linecap="round" />
</g>
		<g transform="matrix(1 0 0 1 254.97 -3.43)" id="aF-53_fXf4DJZwuXsFsAU"  >
<path style="stroke: none; stroke-width: 1; stroke-dasharray: none; stroke-linecap: butt; stroke-dashoffset: 0; stroke-linejoin: miter; stroke-miterlimit: 4; fill: rgb(255,244,99); fill-rule: nonzero; opacity: 1;" vector-effect="non-scaling-stroke"  transform=" translate(-854.97, -446.57)" d="M 865.68843 510.71875 C 845.01265 510.71875 821.60396 502.72998 820.1864300000001 502.23926 L 819.77628 502.09717 L 843.101 382.41309 L 843.5302 382.43066 C 852.77385 382.80566 877.99944 382.99805 878.2533500000001 383 L 878.7059800000001 383.00342 L 888.4286400000001 488.62207 L 890.1664300000001 504.0708 L 889.9535400000001 504.24316000000005 C 884.00582 509.05176 875.13228 510.71875 865.68843 510.71875 Z" stroke-linecap="round" />
</g>
		<g transform="matrix(1 0 0 1 230 -9)" id="lsudgL62NZ1ZL2hnU_knI"  >
<path style="stroke: none; stroke-width: 1; stroke-dasharray: none; stroke-linecap: butt; stroke-dashoffset: 0; stroke-linejoin: miter; stroke-miterlimit: 4; fill: rgb(47,46,65); fill-rule: nonzero; opacity: 1;" vector-effect="non-scaling-stroke"  transform=" translate(-830, -441)" d="M 828.3359 500.37549 L 813.74654 494.499 L 821.18254 404.55516 C 821.545004302337 400.0636844806785 823.9263932319427 395.979453788684 827.65666 393.45164 L 835.3339 388.22703 L 835.3339 388.22703 C 834.8931700407409 386.7286074721923 835.1981282849794 385.109707712928 836.1538331947063 383.8743368802005 C 837.1095381044331 382.63896604747293 838.5999334931887 381.93714160614076 840.16102 381.98736 L 842.35978 382.0581 C 843.215202505365 381.48133480848367 844.3370813272824 381.4893376812012 845.1841885396776 382.0782477927953 C 846.0312957520729 382.6671579043894 846.4295930919905 383.71598361252825 846.18693 384.71874 L 845.70402 394.24804 Z" stroke-linecap="round" />
</g>
		<g transform="matrix(1 0 0 1 216.48 -8.8)" id="SSM9b_4fVPnh2YcBtBJEF"  >
<path style="stroke: none; stroke-width: 1; stroke-dasharray: none; stroke-linecap: butt; stroke-dashoffset: 0; stroke-linejoin: miter; stroke-miterlimit: 4; fill: rgb(47,46,65); fill-rule: nonzero; opacity: 1;" vector-effect="non-scaling-stroke"  transform=" translate(-816.48, -441.2)" d="M 820.97408 484.251 L 801.9254999999999 483.44874999999996 L 808.09615 443.75636999999995 L 813.20943 406.40772999999996 C 813.4131072263624 403.6907263364888 814.8468170750407 401.2156147576399 817.1023351051969 399.6871410955468 C 819.357853135353 398.1586674334536 822.1880480169217 397.7443026300606 824.78707 398.56202999999994 L 824.78707 398.56202999999994 C 828.9113386620653 399.8561470460178 831.5135181794393 403.9219010823566 830.96138 408.2090299999999 L 825.7817 448.6763199999999 Z" stroke-linecap="round" />
</g>
		<g transform="matrix(1 0 0 1 274.73 -8.9)" id="z4OyTySRX3mXF8yclK3Yv"  >
<path style="stroke: none; stroke-width: 1; stroke-dasharray: none; stroke-linecap: butt; stroke-dashoffset: 0; stroke-linejoin: miter; stroke-miterlimit: 4; fill: rgb(47,46,65); fill-rule: nonzero; opacity: 1;" vector-effect="non-scaling-stroke"  transform=" translate(-874.73, -441.1)" d="M 851.13619 501.751 L 851.00679 501.35012 C 850.91842 501.0757 842.33394 473.53859 856.6982 440.67824 L 863.90133 404.85256000000004 L 870.05695 382.35763000000003 C 870.2907744245416 381.5425051527387 870.8953727451334 380.88541943602826 871.68826 380.58470000000005 C 872.6276880782438 380.2595149678354 873.6705175453119 380.52743049302074 874.33687 381.26516000000004 L 874.33687 381.26516000000004 C 878.6275405714491 380.0057102687697 883.2400496119516 380.46693929305536 887.19638 382.55105000000003 L 895.84107 387.10491 C 899.7944250499286 389.1874537355854 901.8421573993286 393.67742598412593 900.8226999999999 398.02791 L 889.00727 448.45076 L 894.75092 495.54793 Z" stroke-linecap="round" />
</g>
		<g transform="matrix(1 0 0 1 278.11 14.9)" id="wBAvBPDbvaJyGILgs5Vx-"  >
<path style="stroke: none; stroke-width: 1; stroke-dasharray: none; stroke-linecap: butt; stroke-dashoffset: 0; stroke-linejoin: miter; stroke-miterlimit: 4; fill: rgb(255,184,184); fill-rule: nonzero; opacity: 1;" vector-effect="non-scaling-stroke"  transform=" translate(-878.11, -464.9)" d="M 863.71637 482.33769 C 866.6749310520325 482.6589497645236 869.6238343820019 481.6532499577122 871.7695883343647 479.5912045385167 C 873.9153422867275 477.52915911932126 875.0375289308246 474.62258724050344 874.83419 471.65359 L 901.59029 451.83301 L 892.23768 447.39881 L 863.38632 462.26081000000005 C 858.3097999315257 462.9481114092724 854.5496398561856 467.3237242489455 854.6338441711731 472.44586724442576 C 854.7180484861606 477.56801023990596 858.6200016789153 481.81766349593096 863.71637 482.3377300000001 Z" stroke-linecap="round" />
</g>
		<g transform="matrix(1 0 0 1 295.88 -19.29)" id="0DwOHlgqn7I7H6KhebUBY"  >
<path style="stroke: none; stroke-width: 1; stroke-dasharray: none; stroke-linecap: butt; stroke-dashoffset: 0; stroke-linejoin: miter; stroke-miterlimit: 4; fill: rgb(47,46,65); fill-rule: nonzero; opacity: 1;" vector-effect="non-scaling-stroke"  transform=" translate(-895.88, -430.71)" d="M 880.49068 473.46533 L 871.45406 456.59619 L 893.74117 441.92819 L 882.86517 402.91842999999994 C 881.9845950562138 399.7611674661554 882.457481694422 396.37986649850484 884.170437963076 393.5853182772495 C 885.88339423173 390.7907700559942 888.6819323684224 388.83500874542773 891.895 388.187 L 891.895 388.187 C 897.7043639518229 387.0291928682195 903.4742583576563 390.34759163488593 905.395 395.95116 L 920.0698 439.08642000000003 C 920.6900776391446 440.90866190387464 920.0824050776714 442.92363436714265 918.55808 444.09911000000005 Z" stroke-linecap="round" />
</g>
		<g transform="matrix(1 0 0 1 258.24 -106.42)" id="KQwxBgFpnx5mcPK65NUSP"  >
<path style="stroke: none; stroke-width: 1; stroke-dasharray: none; stroke-linecap: butt; stroke-dashoffset: 0; stroke-linejoin: miter; stroke-miterlimit: 4; fill: rgb(47,46,65); fill-rule: nonzero; opacity: 1;" vector-effect="non-scaling-stroke"  transform=" translate(-858.24, -343.58)" d="M 861.12673 354.89533 C 858.18247 355.27841 855.9615299999999 352.26599 854.93144 349.48133 C 853.90135 346.69667000000004 853.11649 343.45476 850.55666 341.95055 C 847.05939 339.89549 842.5848 342.36718 838.5854999999999 341.68915000000004 C 834.0690599999999 340.92345000000006 831.1324999999999 336.1369 830.9023799999999 331.56179000000003 C 830.6722599999998 326.98668000000004 832.4929099999998 322.58639000000005 834.2793799999998 318.36818000000005 L 834.9030399999998 323.61045000000007 C 834.7334625495836 319.99747692485425 836.4539775719406 316.5560605777675 839.4459199999998 314.5236700000001 L 838.6420699999998 322.2159000000001 C 838.9875633045725 320.07247186967487 840.1725765621578 318.15493314067925 841.9351207389087 316.88722347424317 C 843.6976649156596 315.6195138078071 845.8925611110615 315.10605310895903 848.0345499999997 315.4603600000001 L 847.9079499999997 320.0436800000001 C 853.1244499999997 319.4233800000001 858.3865299999997 318.8022200000001 863.6184799999996 319.2747900000001 C 868.8504299999996 319.7473600000001 874.1189099999997 321.4027100000001 878.0842799999996 324.8483500000001 C 884.0158599999996 330.0024900000001 886.1821999999996 338.4893500000001 885.4549099999996 346.3137000000001 C 884.7276199999995 354.1380500000001 881.4977599999996 361.4883800000001 878.1315199999996 368.5888900000001 C 877.2845199999996 370.3754000000001 876.1131099999996 372.3913400000001 874.1491499999996 372.6188900000001 C 872.3845199999996 372.82337000000007 870.7698499999997 371.34825000000006 870.2212799999996 369.6586300000001 C 869.7986234882852 367.92500187150677 869.8149975703103 366.1133354912768 870.2689199999996 364.38763000000006 C 870.7652099999997 361.75034000000005 871.3908399999997 359.05469000000005 870.9242199999997 356.41199000000006 C 870.4575999999996 353.76929000000007 868.5564499999997 351.15780000000007 865.8924899999996 350.83393000000007 C 863.2285299999995 350.51006000000007 860.5026199999996 353.55511000000007 861.7834099999997 355.9133300000001 Z" stroke-linecap="round" />
</g>
		<g transform="matrix(1 0 0 1 -119.72 150.55)" id="94l5HyicTDp3RlXlEKLbz"  >
<path style="stroke: none; stroke-width: 1; stroke-dasharray: none; stroke-linecap: butt; stroke-dashoffset: 0; stroke-linejoin: miter; stroke-miterlimit: 4; fill: rgb(230,230,230); fill-rule: nonzero; opacity: 1;" vector-effect="non-scaling-stroke"  transform=" translate(-480.28, -600.55)" d="M 539.78148 624.57717 L 530.22074 620.55148 L 523.66211 572.62337 L 436.32217 572.62337 L 429.21310000000005 620.35567 L 420.65951000000007 624.6324000000001 C 419.816981492975 625.0537228127007 419.37468901565984 625.9990368238047 419.59113960145123 626.9158336069372 C 419.8075901872426 627.8326303900699 420.6259783027487 628.480304773906 421.5679800000001 628.48031 L 538.99351 628.48031 C 539.9603454249924 628.4803526954756 540.7931979925837 627.7988656180655 540.984523844675 626.8511498594307 C 541.1758496967661 625.903434100796 540.6726095220972 624.9522152181935 539.78148 624.57717 Z" stroke-linecap="round" />
</g>
		<g transform="matrix(1 0 0 1 -119.53 94.5)" id="zbz4Tk-27EiHgxOTAb5-T"  >
<path style="stroke: none; stroke-width: 1; stroke-dasharray: none; stroke-linecap: butt; stroke-dashoffset: 0; stroke-linejoin: miter; stroke-miterlimit: 4; fill: rgb(204,204,204); fill-rule: nonzero; opacity: 1;" vector-effect="non-scaling-stroke"  transform=" translate(-480.47, -544.5)" d="M 694.99055 579 L 265.95255 579 C 261.26556959897846 578.9894791801487 257.47158230447593 575.1869922088869 257.47155 570.5 L 257.47155 510 L 703.47155 510 L 703.47155 570.5 C 703.4714736831992 575.186974006927 699.6775121006167 578.9894352086662 694.99055 579 Z" stroke-linecap="round" />
</g>
		<g transform="matrix(1 0 0 1 -119.5 -45.96)" id="qzlB17bi2Ke_-oGmbFKpV"  >
<path style="stroke: none; stroke-width: 1; stroke-dasharray: none; stroke-linecap: butt; stroke-dashoffset: 0; stroke-linejoin: miter; stroke-miterlimit: 4; fill: rgb(63,61,86); fill-rule: nonzero; opacity: 1;" vector-effect="non-scaling-stroke"  transform=" translate(-480.5, -404.04)" d="M 703.92 538.59375 L 257.07993 538.59375 L 257.07993 279.72705 C 257.0864715715458 274.07056800777514 261.67044774439785 269.486779721133 267.32693 269.48047 L 693.673 269.48047 C 699.329459443308 269.48683470933327 703.913403441189 274.07059082232314 703.92 279.72705 Z" stroke-linecap="round" />
</g>
		<g transform="matrix(1 0 0 1 -119.5 -45.96)" id="dbmo25clZgJzmabCEXyvE"  >
<path style="stroke: none; stroke-width: 1; stroke-dasharray: none; stroke-linecap: butt; stroke-dashoffset: 0; stroke-linejoin: miter; stroke-miterlimit: 4; fill: rgb(255,255,255); fill-rule: nonzero; opacity: 1;" vector-effect="non-scaling-stroke"  transform=" translate(-480.5, -404.04)" d="M 677.232 519.80518 L 283.76792 519.80518 C 279.40712802810106 519.8004129756504 275.87315951181785 516.2665518250568 275.86826 511.90575999999993 L 275.86826 296.16846 C 275.873120501553 291.8075726393842 279.4070327953855 288.2735485080709 283.76792 288.26855 L 677.232 288.26855 C 681.5928872046145 288.2735485080709 685.1267994984471 291.80757263938415 685.13166 296.16846 L 685.13166 511.90576 C 685.1267604881822 516.2665518250569 681.5927919718989 519.8004129756505 677.232 519.80518 Z" stroke-linecap="round" />
</g>
		<g transform="matrix(1 0 0 1 -116.97 177.98)" id="T_lv-i6jjG0pLIZt8Rm4B"  >
<path style="stroke: none; stroke-width: 1; stroke-dasharray: none; stroke-linecap: butt; stroke-dashoffset: 0; stroke-linejoin: miter; stroke-miterlimit: 4; fill: rgb(204,204,204); fill-rule: nonzero; opacity: 1;" vector-effect="non-scaling-stroke"  transform=" translate(-483.03, -627.98)" d="M 673.52847 628.98031 L 292.52846999999997 628.98031 C 291.9761852501692 628.98031 291.52846999999997 628.5325947498309 291.52846999999997 627.98031 C 291.52846999999997 627.4280252501692 291.9761852501692 626.98031 292.52846999999997 626.98031 L 673.52847 626.98031 C 674.0807547498308 626.98031 674.52847 627.4280252501692 674.52847 627.98031 C 674.52847 628.5325947498309 674.0807547498308 628.98031 673.52847 628.98031 Z" stroke-linecap="round" />
</g>
		<g transform="matrix(1 0 0 1 -119.5 -34.58)" id="F4mdS6ye2lvX-N_PH-f5j"  >
<path style="stroke: none; stroke-width: 1; stroke-dasharray: none; stroke-linecap: butt; stroke-dashoffset: 0; stroke-linejoin: miter; stroke-miterlimit: 4; fill: rgb(63,61,86); fill-rule: nonzero; opacity: 1;" vector-effect="non-scaling-stroke"  transform=" translate(-480.5, -415.42)" d="M 640.26763 493 L 320.73223 493 C 320.1799452501692 493 319.73223 492.5522847498308 319.73223 492 L 319.73223 338.84668 C 319.73223 338.2943952501692 320.1799452501692 337.84668 320.73223 337.84668 C 321.2845147498308 337.84668 321.73223 338.2943952501692 321.73223 338.84668 L 321.73223 491 L 640.26763 491 C 640.8199147498309 491 641.26763 491.4477152501692 641.26763 492 C 641.26763 492.5522847498308 640.8199147498309 493 640.26763 493 Z" stroke-linecap="round" />
</g>
		<g transform="matrix(1 0 0 1 -225.53 9)" id="_9RiPVQanoemhOqK2S4-H"  >
<path style="stroke: none; stroke-width: 1; stroke-dasharray: none; stroke-linecap: butt; stroke-dashoffset: 0; stroke-linejoin: miter; stroke-miterlimit: 4; fill: rgb(255,244,99); fill-rule: nonzero; opacity: 1;" vector-effect="non-scaling-stroke"  transform=" translate(-374.47, -459)" d="M 389.003 482 L 359.94 482 C 358.3013908604668 481.99817609773766 356.9734519073611 480.6703489801111 356.97149 479.03174 L 356.97149 438.96826 C 356.9734519073611 437.3296510198889 358.3013908604668 436.00182390226234 359.94 436 L 389.003 436 C 390.6416075153985 436.00182391318043 391.96954360183264 437.3296526374247 391.9715 438.96826 L 391.9715 479.03174 C 391.96954360183264 480.6703473625753 390.6416075153985 481.99817608681957 389.003 482 Z" stroke-linecap="round" />
</g>
		<g transform="matrix(1 0 0 1 -172.53 -10)" id="vt-nQu_fzT3xQivHoyU9D"  >
<path style="stroke: none; stroke-width: 1; stroke-dasharray: none; stroke-linecap: butt; stroke-dashoffset: 0; stroke-linejoin: miter; stroke-miterlimit: 4; fill: rgb(255,244,99); fill-rule: nonzero; opacity: 1;" vector-effect="non-scaling-stroke"  transform=" translate(-427.47, -440)" d="M 442.003 482 L 412.94 482 C 411.3013908604668 481.99817609773766 409.9734519073611 480.6703489801111 409.97149 479.03174 L 409.97149 400.96826 C 409.9734519073611 399.3296510198889 411.3013908604668 398.00182390226234 412.94 398 L 442.003 398 C 443.6416075153985 398.00182391318043 444.96954360183264 399.3296526374247 444.9715 400.96826 L 444.9715 479.03174 C 444.96954360183264 480.6703473625753 443.6416075153985 481.99817608681957 442.003 482 Z" stroke-linecap="round" />
</g>
		<g transform="matrix(1 0 0 1 -119.53 9)" id="7N1yfGiz1QdZiPwCO0icb"  >
<path style="stroke: none; stroke-width: 1; stroke-dasharray: none; stroke-linecap: butt; stroke-dashoffset: 0; stroke-linejoin: miter; stroke-miterlimit: 4; fill: rgb(255,244,99); fill-rule: nonzero; opacity: 1;" vector-effect="non-scaling-stroke"  transform=" translate(-480.47, -459)" d="M 495.003 482 L 465.94 482 C 464.3013908604668 481.99817609773766 462.9734519073611 480.6703489801111 462.97149 479.03174 L 462.97149 438.96826 C 462.9734519073611 437.3296510198889 464.3013908604668 436.00182390226234 465.94 436 L 495.003 436 C 496.6416075153985 436.00182391318043 497.96954360183264 437.3296526374247 497.9715 438.96826 L 497.9715 479.03174 C 497.96954360183264 480.6703473625753 496.6416075153985 481.99817608681957 495.003 482 Z" stroke-linecap="round" />
</g>
		<g transform="matrix(1 0 0 1 -66.53 -17.5)" id="m-xm-Hg8mpjN_HE0CJR4n"  >
<path style="stroke: none; stroke-width: 1; stroke-dasharray: none; stroke-linecap: butt; stroke-dashoffset: 0; stroke-linejoin: miter; stroke-miterlimit: 4; fill: rgb(255,244,99); fill-rule: nonzero; opacity: 1;" vector-effect="non-scaling-stroke"  transform=" translate(-533.47, -432.5)" d="M 548.003 482 L 518.94 482 C 517.3388008905312 482.034463611706 516.0113779593614 480.7672831649096 515.97149 479.16621 L 515.97149 385.83379 C 516.0113779593614 384.2327168350904 517.3388008905312 382.965536388294 518.94 383 L 548.003 383 C 549.6041973939376 382.96553644217005 550.9316174541578 384.2327184170569 550.9715 385.83379 L 550.9715 479.16621000000004 C 550.9316174541578 480.7672815829431 549.6041973939376 482.03446355782995 548.003 482 Z" stroke-linecap="round" />
</g>
		<g transform="matrix(1 0 0 1 -13.53 -31)" id="grxB0F7fOoybsVaEjYiox"  >
<path style="stroke: none; stroke-width: 1; stroke-dasharray: none; stroke-linecap: butt; stroke-dashoffset: 0; stroke-linejoin: miter; stroke-miterlimit: 4; fill: rgb(255,244,99); fill-rule: nonzero; opacity: 1;" vector-effect="non-scaling-stroke"  transform=" translate(-586.47, -419)" d="M 601.003 482 L 571.94 482 C 570.3013908604669 481.99817609773766 568.9734519073611 480.6703489801111 568.97149 479.03174 L 568.97149 358.96826 C 568.9734519073611 357.3296510198889 570.3013908604669 356.00182390226234 571.94 356 L 601.003 356 C 602.6416075153985 356.0018239131805 603.9695436018327 357.3296526374247 603.9715 358.96826 L 603.9715 479.03174 C 603.9695436018327 480.6703473625753 602.6416075153985 481.9981760868195 601.003 482 Z" stroke-linecap="round" />
</g>
		<g transform="matrix(1 0 0 1 -225.53 -32)" id="useZ-gapE7e53X-k1bsc7"  >
<path style="stroke: none; stroke-width: 1; stroke-dasharray: none; stroke-linecap: butt; stroke-dashoffset: 0; stroke-linejoin: miter; stroke-miterlimit: 4; fill: rgb(63,61,86); fill-rule: nonzero; opacity: 1;" vector-effect="non-scaling-stroke"  transform=" translate(-6, -6)" d="M 0 6 C 0 2.68629 2.68629 0 6 0 C 9.31371 0 12 2.68629 12 6 C 12 9.31371 9.31371 12 6 12 C 2.68629 12 0 9.31371 0 6 z" stroke-linecap="round" />
</g>
		<g transform="matrix(1 0 0 1 -172.53 -71)" id="yPj04SAFgOrR8qqGVnw7r"  >
<path style="stroke: none; stroke-width: 1; stroke-dasharray: none; stroke-linecap: butt; stroke-dashoffset: 0; stroke-linejoin: miter; stroke-miterlimit: 4; fill: rgb(63,61,86); fill-rule: nonzero; opacity: 1;" vector-effect="non-scaling-stroke"  transform=" translate(-6, -6)" d="M 0 6 C 0 2.68629 2.68629 0 6 0 C 9.31371 0 12 2.68629 12 6 C 12 9.31371 9.31371 12 6 12 C 2.68629 12 0 9.31371 0 6 z" stroke-linecap="round" />
</g>
		<g transform="matrix(1 0 0 1 -119.53 -32)" id="1gO9AShbDT-FLhySOlPzB"  >
<path style="stroke: none; stroke-width: 1; stroke-dasharray: none; stroke-linecap: butt; stroke-dashoffset: 0; stroke-linejoin: miter; stroke-miterlimit: 4; fill: rgb(63,61,86); fill-rule: nonzero; opacity: 1;" vector-effect="non-scaling-stroke"  transform=" translate(-6, -6)" d="M 0 6 C 0 2.68629 2.68629 0 6 0 C 9.31371 0 12 2.68629 12 6 C 12 9.31371 9.31371 12 6 12 C 2.68629 12 0 9.31371 0 6 z" stroke-linecap="round" />
</g>
		<g transform="matrix(1 0 0 1 -66.53 -90)" id="n4znGhlVVWnKWygqOFd9h"  >
<path style="stroke: none; stroke-width: 1; stroke-dasharray: none; stroke-linecap: butt; stroke-dashoffset: 0; stroke-linejoin: miter; stroke-miterlimit: 4; fill: rgb(63,61,86); fill-rule: nonzero; opacity: 1;" vector-effect="non-scaling-stroke"  transform=" translate(-6, -6)" d="M 0 6 C 0 2.68629 2.68629 0 6 0 C 9.31371 0 12 2.68629 12 6 C 12 9.31371 9.31371 12 6 12 C 2.68629 12 0 9.31371 0 6 z" stroke-linecap="round" />
</g>
		<g transform="matrix(1 0 0 1 -13.53 -112)" id="3MIi0QXKG-jr-_3VDprRR"  >
<path style="stroke: none; stroke-width: 1; stroke-dasharray: none; stroke-linecap: butt; stroke-dashoffset: 0; stroke-linejoin: miter; stroke-miterlimit: 4; fill: rgb(63,61,86); fill-rule: nonzero; opacity: 1;" vector-effect="non-scaling-stroke"  transform=" translate(-6, -6)" d="M 0 6 C 0 2.68629 2.68629 0 6 0 C 9.31371 0 12 2.68629 12 6 C 12 9.31371 9.31371 12 6 12 C 2.68629 12 0 9.31371 0 6 z" stroke-linecap="round" />
</g>
		<g transform="matrix(1 0 0 1 -119.64 -71.47)" id="w3ZavRyp6TJxXlCBpmJm_"  >
<path style="stroke: none; stroke-width: 1; stroke-dasharray: none; stroke-linecap: butt; stroke-dashoffset: 0; stroke-linejoin: miter; stroke-miterlimit: 4; fill: rgb(63,61,86); fill-rule: nonzero; opacity: 1;" vector-effect="non-scaling-stroke"  transform=" translate(-261.89, -157.53)" d="M 262.126 198.344 L 208.99999999999997 158.552 L 156.59999999999997 197.79999999999998 L 155.39999999999998 196.2 L 208.99999999999997 156.053 L 261.87399999999997 195.656 L 314.41499999999996 138.15800000000002 L 314.626 138.072 L 367.626 116.718 L 368.37399999999997 118.57300000000001 L 315.585 139.842 z" stroke-linecap="round" />
</g>
</g>
</g>
</svg>